PathFileType	4	(x/y/z)	S01_PSF_T12.trc
DataRate	CameraRate	NumFrames	NumMarkers	Units	OrigDataRate	OrigDataStartFrame	OrigNumFrames
240	240	10	51	mm	240	233	372
Frame#	Time	Sternum			R.Acromium			L.Acromium			Top.Head			R.ASIS			L.ASIS			R.PSIS			L.PSIS			R.Great.Tro			L.Great.Tro			R.Iliac.Crest			L.Iliac.Crest			V.Sacral			R.Thigh.Upper.Post			R.Thigh.Lower.Ant			R.Thigh.Lower.Post			R.Thigh.Upper.Ant			R.Knee.Lat			R.Knee.Med			R.Shank.Upper.Post			R.Shank.Lower.Ant			R.Shank.Lower.Post			R.Shank.Upper.Ant			R.Ankle.Lat			R.Ankle.Med			R.Heel.Upper			R.Heel.Med			R.Heel.Lat			R.Toe.Lat			R.Toe.Med			R.Toe.Tip			L.Thigh.Upper.Post			L.Thigh.Lower.Ant			L.Thigh.Lower.Post			L.Thigh.Upper.Ant			L.Knee.Lat			L.Knee.Med			L.Shank.Upper.Post			L.Shank.Lower.Ant			L.Shank.Lower.Post			L.Shank.Upper.Ant			L.Ankle.Lat			L.Ankle.Med			L.Heel.Upper			L.Heel.Med			L.Heel.Lat			L.Toe.Lat			L.Toe.Med			L.Toe.Tip			Cervical.Spine			Back			
		X1	Y1	Z1	X2	Y2	Z2	X3	Y3	Z3	X4	Y4	Z4	X5	Y5	Z5	X6	Y6	Z6	X7	Y7	Z7	X8	Y8	Z8	X9	Y9	Z9	X10	Y10	Z10	X11	Y11	Z11	X12	Y12	Z12	X13	Y13	Z13	X14	Y14	Z14	X15	Y15	Z15	X16	Y16	Z16	X17	Y17	Z17	X18	Y18	Z18	X19	Y19	Z19	X20	Y20	Z20	X21	Y21	Z21	X22	Y22	Z22	X23	Y23	Z23	X24	Y24	Z24	X25	Y25	Z25	X26	Y26	Z26	X27	Y27	Z27	X28	Y28	Z28	X29	Y29	Z29	X30	Y30	Z30	X31	Y31	Z31	X32	Y32	Z32	X33	Y33	Z33	X34	Y34	Z34	X35	Y35	Z35	X36	Y36	Z36	X37	Y37	Z37	X38	Y38	Z38	X39	Y39	Z39	X40	Y40	Z40	X41	Y41	Z41	X42	Y42	Z42	X43	Y43	Z43	X44	Y44	Z44	X45	Y45	Z45	X46	Y46	Z46	X47	Y47	Z47	X48	Y48	Z48	X49	Y49	Z49	X50	Y50	Z50	X51	Y51	Z51	

233	0.96667	243.5	1244.9	297.25	153.67	1502.1	477.4	111.2	1515.4	152.32	183.45	1823.2	299.17	184.48	994.03	464.69	192.03	1008.4	198.91	-49.945	1041.6	365.07	-50.833	1038.7	262.12	97.79	942.09	539.68	96.947	956.65	116.28	106.41	1096.4	526.5	81.508	1086.5	122.28	-63.285	1003.2	310.46	35.754	644.24	523.9	97.68	563.5	510.81	29.156	555.89	511.12	108.42	653.37	522.89	28.975	489.51	511.71	60.255	481.35	366.56	-121.58	417.34	517.91	-137.55	314.81	481.76	-174.65	372.83	504.62	-86.158	363.94	501.32	-321.02	226.92	462.91	-284.12	212.56	374.7	-377.49	267.64	401.33	-386.32	243.69	365.03	-400.09	237.2	428.41	-311.38	72.178	479.04	-270.32	71.678	360.36	-218.73	37.822	415.48	166.14	671.73	149.11	270.33	636.41	154.32	206.06	593.95	172.35	222.42	715.5	130.06	285.16	532.89	169.24	297.67	548.86	309.22	251.95	390.92	151.05	319.41	307.67	182.02	259.62	313.57	156.73	312.81	384	172.81	258.61	102.99	194.85	283.81	114.35	293.14	187.7	72.328	242.66	199.52	48.249	276.81	197.08	45.85	214.22	406.65	41.117	178.98	433.58	50.902	300.21	496.35	61.632	247.94	49.556	1571.2	327.78	-53.949	1265.3	352.09
234	0.97083	249.33	1245.8	297	159.09	1503.4	476.56	117.24	1516.1	151.43	189.03	1824.1	297.7	190.07	994.9	464.32	198.08	1009.3	198.62	-44.206	1042.3	364.57	-44.861	1039.6	261.58	103.67	942.61	539.29	103.07	957.62	115.92	111.9	1097.4	525.88	87.633	1087.4	121.77	-57.443	1004	309.87	45.111	643.93	524.35	107.92	563.81	511.69	39.474	555.46	511.77	117.69	653.81	523.52	40.261	489.31	512.51	71.643	481.01	367.29	-110.58	418.69	518.71	-127.87	316.51	482.25	-164.23	374.93	505.3	-75.833	364.89	501.92	-312.34	231.52	463.24	-275.81	216.14	375.1	-367.61	273.82	401.6	-377.12	250.12	365.29	-391.09	244.07	428.67	-307.05	76.184	479.37	-265.62	74.345	361.06	-215.63	37.983	416.43	170.78	672.31	148.87	274.76	636.42	154.26	210.24	594.3	172.21	227.25	715.76	129.98	288.92	532.75	169.27	301.33	548.69	309.26	254.49	390.99	151.15	321.35	307.25	182.08	261.58	313.59	156.83	315.31	383.61	172.83	258.88	103.09	195.03	284.1	114.27	293.3	187.87	72.459	242.69	199.6	48.324	276.84	197.2	45.978	214.24	406.81	40.963	179.04	433.73	50.359	300.32	496.54	60.944	248.1	55.191	1572.1	326.67	-48.137	1266.2	351.27
235	0.975	255.13	1246.8	296.78	164.48	1504.6	475.76	123.27	1516.9	150.57	194.59	1825	296.28	195.59	995.8	464	204.09	1010.2	198.36	-38.522	1043	364.06	-38.925	1040.5	261.01	109.47	943.2	538.94	109.16	958.6	115.58	117.25	1098.4	525.3	93.73	1088.2	121.26	-51.654	1004.9	309.26	54.518	643.71	524.78	118.21	564.22	512.54	49.846	555.14	512.4	127	654.35	524.14	51.604	489.23	513.28	83.042	480.83	367.95	-99.457	420.07	519.46	-118.01	318.24	482.66	-153.67	377.04	505.92	-65.363	365.9	502.47	-303.41	236.08	463.49	-267.21	219.68	375.43	-357.5	279.82	401.72	-367.63	256.32	365.43	-381.79	250.76	428.8	-302.25	80.323	479.75	-260.45	77.038	361.82	-212.09	38.319	417.48	175.32	672.92	148.66	279.06	636.42	154.22	214.28	594.66	172.08	231.99	716.03	129.93	292.53	532.61	169.31	304.84	548.5	309.31	256.9	391.05	151.26	323.18	306.83	182.14	263.44	313.61	156.94	317.68	383.23	172.85	259.12	103.2	195.19	284.35	114.21	293.45	188.02	72.577	242.72	199.67	48.393	276.86	197.31	46.094	214.26	406.95	40.848	179.09	433.87	49.892	300.43	496.69	60.352	248.25	60.814	1573	325.58	-42.373	1267.1	350.45
236	0.97917	260.89	1247.8	296.61	169.84	1505.9	475	129.29	1517.6	149.75	200.14	1826	294.91	201.06	996.74	463.73	210.06	1011.1	198.13	-32.889	1043.7	363.53	-33.024	1041.5	260.43	115.19	943.86	538.62	115.2	959.58	115.26	122.48	1099.5	524.76	99.8	1089	120.74	-45.918	1005.8	308.64	63.966	643.59	525.2	128.54	564.75	513.37	60.263	554.93	513	136.34	654.98	524.74	62.986	489.28	514.03	94.441	480.81	368.57	-88.244	421.48	520.17	-107.99	320.02	483.02	-142.97	379.14	506.49	-54.768	366.97	502.96	-294.25	240.61	463.66	-258.35	223.15	375.68	-347.18	285.59	401.68	-357.87	262.26	365.43	-372.24	257.24	428.8	-296.96	84.562	480.19	-254.79	79.739	362.66	-208.06	38.85	418.66	179.75	673.55	148.46	283.24	636.42	154.2	218.19	595.03	171.95	236.63	716.31	129.89	296.01	532.48	169.36	308.22	548.3	309.38	259.2	391.12	151.37	324.92	306.44	182.2	265.2	313.62	157.05	319.94	382.86	172.87	259.32	103.32	195.35	284.58	114.16	293.6	188.16	72.684	242.75	199.72	48.456	276.89	197.41	46.199	214.28	407.08	40.766	179.14	433.99	49.492	300.53	496.83	59.843	248.38	66.423	1574	324.52	-36.656	1268	349.62
237	0.98333	266.62	1248.8	296.48	175.16	1507.2	474.28	135.32	1518.4	148.96	205.68	1826.9	293.59	206.47	997.71	463.5	215.99	1012	197.94	-27.305	1044.5	362.99	-27.158	1042.5	259.83	120.84	944.59	538.34	121.19	960.57	114.97	127.59	1100.5	524.26	105.85	1089.8	120.21	-40.233	1006.7	308.02	73.448	643.57	525.61	138.89	565.4	514.17	70.714	554.84	513.58	145.71	655.73	525.34	74.39	489.47	514.76	105.83	480.95	369.13	-76.96	422.92	520.83	-97.823	321.83	483.31	-132.16	381.24	507	-44.064	368.12	503.4	-284.88	245.06	463.74	-249.22	226.53	375.86	-336.68	291.1	401.47	-347.87	267.9	365.3	-362.46	263.46	428.66	-291.17	88.867	480.7	-248.62	82.429	363.56	-203.49	39.589	419.95	184.09	674.22	148.28	287.31	636.43	154.19	221.98	595.42	171.83	241.18	716.59	129.86	299.35	532.34	169.42	311.47	548.09	309.44	261.38	391.17	151.48	326.56	306.06	182.26	266.87	313.64	157.16	322.08	382.51	172.89	259.51	103.44	195.5	284.77	114.13	293.73	188.28	72.783	242.78	199.76	48.518	276.91	197.5	46.297	214.29	407.18	40.707	179.19	434.09	49.149	300.62	496.94	59.407	248.5	72.019	1575	323.5	-30.986	1269	348.79
238	0.9875	272.32	1249.8	296.38	180.45	1508.5	473.6	141.33	1519.2	148.21	211.2	1827.9	292.33	211.84	998.72	463.33	221.89	1012.9	197.78	-21.765	1045.3	362.44	-21.327	1043.6	259.22	126.41	945.38	538.08	127.14	961.56	114.7	132.59	1101.5	523.81	111.88	1090.7	119.7	-34.598	1007.7	307.39	82.956	643.67	526	149.26	566.18	514.96	81.189	554.87	514.13	155.09	656.58	525.93	85.798	489.8	515.47	117.21	481.25	369.66	-65.628	424.4	521.43	-87.517	323.68	483.55	-121.26	383.33	507.45	-33.268	369.33	503.78	-275.3	249.42	463.73	-239.84	229.82	375.96	-326.03	296.33	401.1	-337.65	273.2	365.04	-352.46	269.38	428.37	-284.84	93.203	481.28	-241.93	85.09	364.54	-198.34	40.545	421.37	188.33	674.92	148.11	291.26	636.43	154.2	225.66	595.82	171.71	245.64	716.87	129.85	302.57	532.21	169.48	314.63	547.88	309.51	263.46	391.22	151.59	328.12	305.69	182.32	268.47	313.66	157.26	324.13	382.17	172.91	259.67	103.56	195.64	284.95	114.11	293.86	188.39	72.877	242.8	199.8	48.578	276.94	197.59	46.389	214.31	407.27	40.668	179.23	434.18	48.855	300.7	497.03	59.031	248.6	77.602	1576	322.5	-25.359	1270	347.96
239	0.99167	277.98	1250.8	296.33	185.7	1509.7	472.96	147.34	1520.1	147.49	216.72	1828.9	291.13	217.16	999.77	463.2	227.76	1013.7	197.65	-16.265	1046.2	361.89	-15.53	1044.7	258.61	131.92	946.24	537.86	133.04	962.54	114.47	137.48	1102.5	523.4	117.89	1091.5	119.2	-29.013	1008.8	306.76	92.48	643.88	526.38	159.64	567.08	515.73	91.68	555.04	514.66	164.48	657.55	526.5	97.198	490.29	516.17	128.56	481.71	370.13	-54.267	425.93	521.97	-77.086	325.55	483.75	-110.3	385.43	507.84	-22.396	370.62	504.13	-265.54	253.67	463.64	-230.2	232.99	376	-315.25	301.26	400.57	-327.24	278.13	364.64	-342.27	274.97	427.94	-277.98	97.534	481.92	-234.69	87.704	365.59	-192.56	41.721	422.91	192.48	675.64	147.94	295.12	636.44	154.2	229.23	596.23	171.59	250.02	717.15	129.83	305.65	532.08	169.53	317.68	547.67	309.57	265.46	391.27	151.68	329.61	305.34	182.37	269.98	313.68	157.35	326.08	381.84	172.92	259.82	103.68	195.76	285.11	114.1	293.98	188.5	72.967	242.82	199.82	48.64	276.96	197.66	46.477	214.32	407.35	40.641	179.27	434.26	48.604	300.76	497.12	58.707	248.69	83.171	1577	321.54	-19.775	1271	347.12
240	0.99583	283.61	1251.9	296.31	190.93	1511	472.37	153.34	1520.9	146.81	222.23	1830	289.98	222.44	1000.9	463.11	233.59	1014.6	197.55	-10.799	1047.1	361.32	-9.7684	1045.8	257.99	137.36	947.17	537.67	138.89	963.51	114.26	142.29	1103.5	523.05	123.88	1092.4	118.71	-23.473	1009.9	306.13	102.01	644.22	526.74	170.01	568.11	516.48	102.18	555.33	515.16	173.87	658.63	527.07	108.58	490.92	516.84	139.89	482.33	370.58	-42.894	427.5	522.45	-66.546	327.46	483.9	-99.276	387.52	508.16	-11.463	371.98	504.43	-255.61	257.79	463.47	-220.33	236.04	375.98	-304.36	305.85	399.89	-316.66	282.68	364.11	-331.92	280.21	427.38	-270.57	101.82	482.64	-226.9	90.252	366.72	-186.13	43.108	424.56	196.54	676.38	147.78	298.87	636.45	154.21	232.7	596.65	171.46	254.31	717.44	129.83	308.61	531.95	169.57	320.64	547.44	309.61	267.36	391.32	151.75	331.02	305.01	182.4	271.43	313.7	157.43	327.95	381.52	172.92	259.96	103.81	195.88	285.25	114.1	294.09	188.6	73.055	242.84	199.83	48.704	276.99	197.73	46.562	214.34	407.41	40.624	179.3	434.33	48.388	300.82	497.19	58.427	248.76	88.726	1578.1	320.61	-14.229	1272.1	346.28
241	1	289.21	1252.9	296.33	196.12	1512.3	471.81	159.33	1521.8	146.16	227.73	1831	288.89	227.68	1002	463.07	239.39	1015.4	197.47	-5.3631	1048	360.76	-4.0416	1047	257.38	142.75	948.17	537.51	144.7	964.48	114.07	147.02	1104.5	522.74	129.85	1093.2	118.25	-17.977	1011	305.51	111.55	644.67	527.09	180.37	569.27	517.23	112.67	555.76	515.64	183.25	659.83	527.63	119.92	491.7	517.5	151.19	483.11	370.99	-31.528	429.12	522.85	-55.905	329.38	484.01	-88.215	389.6	508.43	-0.48226	373.42	504.69	-245.5	261.76	463.23	-210.22	238.94	375.9	-293.39	310.1	399.06	-305.92	286.82	363.47	-321.42	285.07	426.7	-262.61	106.03	483.42	-218.58	92.716	367.9	-179.03	44.689	426.32	200.52	677.14	147.62	302.52	636.46	154.21	236.06	597.07	171.32	258.52	717.74	129.82	311.46	531.83	169.6	323.51	547.21	309.64	269.19	391.36	151.8	332.37	304.7	182.43	272.81	313.72	157.49	329.73	381.22	172.91	260.09	103.94	195.98	285.39	114.11	294.18	188.69	73.142	242.85	199.84	48.771	277	197.8	46.645	214.34	407.47	40.612	179.33	434.39	48.202	300.87	497.25	58.182	248.83	94.266	1579.1	319.71	-8.7193	1273.2	345.43
242	1.0042	294.78	1254	296.38	201.27	1513.6	471.29	165.3	1522.8	145.55	233.22	1832.1	287.86	232.9	1003.1	463.06	245.16	1016.2	197.42	0.046979	1049	360.2	1.6502	1048.2	256.77	148.09	949.23	537.37	150.45	965.44	113.91	151.68	1105.6	522.49	135.82	1094.1	117.81	-12.521	1012.2	304.91	121.08	645.24	527.42	190.72	570.56	517.96	123.16	556.32	516.09	192.61	661.15	528.18	131.22	492.63	518.15	162.47	484.04	371.37	-20.181	430.8	523.19	-45.173	331.32	484.11	-77.127	391.68	508.63	10.536	374.93	504.93	-235.23	265.55	462.91	-199.89	241.69	375.76	-282.35	313.98	398.11	-295.06	290.54	362.72	-310.79	289.52	425.9	-254.1	110.13	484.27	-209.72	95.079	369.14	-171.26	46.439	428.16	204.41	677.93	147.46	306.08	636.47	154.21	239.33	597.51	171.17	262.65	718.04	129.8	314.19	531.72	169.6	326.29	546.98	309.65	270.94	391.4	151.83	333.66	304.4	182.44	274.14	313.74	157.54	331.43	380.93	172.88	260.21	104.07	196.06	285.51	114.13	294.26	188.78	73.231	242.86	199.85	48.842	277.02	197.86	46.728	214.35	407.53	40.604	179.35	434.44	48.041	300.91	497.3	57.967	248.88	99.792	1580.3	318.84	-3.2425	1274.3	344.59
